<svg xmlns="http://www.w3.org/2000/svg" viewBox="0 0 24 24" fill="#ea580c">
  <path d="M12.75 12.75a.75.75 0 1 1-1.5 0 .75.75 0 0 1 1.5 0ZM7.5 15.75a.75.75 0 1 0 0-1.5.75.75 0 0 0 0 1.5ZM8.25 17.25a.75.75 0 1 1-1.5 0 .75.75 0 0 1 1.5 0ZM9.75 15.75a.75.75 0 1 0 0-1.5.75.75 0 0 0 0 1.5ZM10.5 17.25a.75.75 0 1 1-1.5 0 .75.75 0 0 1 1.5 0ZM12 15.75a.75.75 0 1 0 0-1.5.75.75 0 0 0 0 1.5ZM12.75 17.25a.75.75 0 1 1-1.5 0 .75.75 0 0 1 1.5 0ZM14.25 15.75a.75.75 0 1 0 0-1.5.75.75 0 0 0 0 1.5ZM15 17.25a.75.75 0 1 1-1.5 0 .75.75 0 0 1 1.5 0ZM16.5 15.75a.75.75 0 1 0 0-1.5.75.75 0 0 0 0 1.5ZM15 12.75a.75.75 0 1 1-1.5 0 .75.75 0 0 1 1.5 0ZM16.5 13.5a.75.75 0 1 0 0-1.5.75.75 0 0 0 0 1.5Z" />
  <path fill-rule="evenodd" d="M6.75 2.25A.75.75 0 0 1 7.5 3v1.5h9V3a.75.75 0 0 1 1.5 0v1.5h.75a3 3 0 0 1 3 3v11.25a3 3 0 0 1-3 3H5.25a3 3 0 0 1-3-3V7.5a3 3 0 0 1 2.25-2.25h13.5A2.25 2.25 0 0 1 21 7.5v11.25m-18 0A2.25 2.25 0 0 0 5.25 21h13.5A2.25 2.25 0 0 0 21 18.75m-18 0v-7.5A2.25 2.25 0 0 1 5.25 9h13.5A2.25 2.25 0 0 1 21 11.25v7.5" clip-rule="evenodd" />
</svg>
